<svg xmlns="http://www.w3.org/2000/svg" version="1.1"  width="2000" height="560" viewBox="0 0 2000 560"><g transform="matrix(1,0,0,1,-1.212116853444968,0.01173504026394312)"><svg viewBox="0 0 396 111" data-background-color="#01415c" preserveAspectRatio="xMidYMid meet" height="560" width="2000" xmlns="http://www.w3.org/2000/svg" xmlns:xlink="http://www.w3.org/1999/xlink"><g id="tight-bounds" transform="matrix(1,0,0,1,0.23999913698210662,-0.002326052623743635)"><svg viewBox="0 0 395.5199999999999 111.00465210524746" height="111.00465210524746" width="395.5199999999999"><g><svg viewBox="0 0 395.5199999999999 111.00465210524746" height="111.00465210524746" width="395.5199999999999"><g><svg viewBox="0 0 395.5199999999999 111.00465210524746" height="111.00465210524746" width="395.5199999999999"><g id="textblocktransform"><svg viewBox="0 0 395.5199999999999 111.00465210524746" height="111.00465210524746" width="395.5199999999999" id="textblock"><g><svg viewBox="0 0 395.5199999999999 111.00465210524746" height="111.00465210524746" width="395.5199999999999"><g transform="matrix(1,0,0,1,0,0)"><svg width="395.5199999999999" viewBox="0.24 -38.09 142.71892794860798 39.99" height="111.00465210524746" data-palette-color="#DD62ED"><g class="wordmark-text-0" data-fill-palette-color="primary" id="text-0"><path d="M17.43-34.28L17.43-34.28Q17.43-33.15 16.72-32.32 16.02-31.49 15.04-30.96L15.04-30.96Q14.16-30.42 13.23-29.81 12.3-29.2 11.52-28.44 10.74-27.69 10.25-26.76 9.77-25.83 9.77-24.66L9.77-24.66Q9.77-23.63 10.25-22.8 10.74-21.97 11.45-21.17 12.16-20.36 13.01-19.51 13.87-18.65 14.58-17.6 15.28-16.55 15.77-15.23 16.26-13.92 16.26-12.16L16.26-12.16Q16.26-10.94 15.75-9.4 15.23-7.86 14.36-6.3 13.48-4.74 12.28-3.27 11.08-1.81 9.74-0.66 8.4 0.49 6.93 1.2 5.47 1.9 4.1 1.9L4.1 1.9Q2.59 1.9 1.42 1.07 0.24 0.24 0.24-1.42L0.24-1.42Q0.24-2.54 0.78-3.49 1.32-4.44 2.1-5.32 2.88-6.2 3.83-7.03 4.79-7.86 5.57-8.69 6.35-9.52 6.88-10.42 7.42-11.33 7.42-12.35L7.42-12.35Q7.42-13.77 6.42-15.26 5.42-16.75 4.2-18.33 2.98-19.92 1.98-21.58 0.98-23.24 0.98-24.95L0.98-24.95Q0.98-27.05 2.1-29.37 3.22-31.69 4.98-33.62 6.74-35.55 8.94-36.82 11.13-38.09 13.28-38.09L13.28-38.09Q14.99-38.09 16.21-37.06 17.43-36.04 17.43-34.28ZM28.27-29.59L28.27-29.59Q28.27-26.95 28.05-24.29 27.83-21.63 27.83-18.95L27.83-18.95Q27.83-15.48 28.05-12.01 28.27-8.54 28.27-5.03L28.27-5.03Q28.27-4.15 28.17-3.05 28.07-1.95 27.71-1.03 27.34-0.1 26.61 0.54 25.88 1.17 24.66 1.17L24.66 1.17Q23.48 1.17 22.63 0.02 21.77-1.12 21.21-2.91 20.65-4.69 20.29-6.88 19.92-9.08 19.75-11.16 19.58-13.23 19.5-14.97 19.43-16.7 19.43-17.53L19.43-17.53Q19.43-18.46 19.5-20.21 19.58-21.97 19.82-24.02 20.07-26.07 20.48-28.2 20.9-30.32 21.58-32.06 22.26-33.79 23.22-34.89 24.17-35.99 25.49-35.99L25.49-35.99Q26.56-35.99 27.12-35.28 27.68-34.57 27.93-33.57 28.17-32.57 28.22-31.47 28.27-30.37 28.27-29.59ZM52.44-8.69L52.44-8.69Q52.44-7.03 51.39-5.44 50.34-3.86 48.75-2.61 47.16-1.37 45.36-0.61 43.55 0.15 42.04 0.15L42.04 0.15Q39.45 0.15 37.42-1.15 35.4-2.44 34.03-4.44 32.66-6.45 31.95-8.86 31.24-11.28 31.24-13.57L31.24-13.57Q31.24-16.02 31.93-18.8 32.61-21.58 34-23.93 35.4-26.27 37.52-27.83 39.64-29.39 42.57-29.39L42.57-29.39Q44.23-29.39 45.75-28.83 47.26-28.27 48.38-27.25 49.51-26.22 50.19-24.8 50.87-23.39 50.87-21.63L50.87-21.63Q50.87-19.34 49.9-17.33 48.92-15.33 47.31-13.87 45.7-12.4 43.6-11.5 41.5-10.6 39.3-10.5L39.3-10.5Q39.5-9.08 40.45-8.45 41.4-7.81 42.72-7.81L42.72-7.81Q43.7-7.81 44.62-8.3 45.55-8.79 46.43-9.4 47.31-10.01 48.16-10.5 49.02-10.99 49.9-10.99L49.9-10.99Q50.87-10.99 51.66-10.35 52.44-9.72 52.44-8.69ZM44.53-20.65L44.53-20.65Q44.53-21.29 44.18-21.97 43.84-22.66 43.11-22.66L43.11-22.66Q42.04-22.66 41.3-22.09 40.57-21.53 40.08-20.68 39.59-19.82 39.33-18.85 39.06-17.87 39.01-17.04L39.01-17.04Q39.69-17.19 40.64-17.43 41.6-17.68 42.45-18.09 43.31-18.51 43.92-19.14 44.53-19.78 44.53-20.65ZM74.85-8.69L74.85-8.69Q74.85-7.03 73.8-5.44 72.75-3.86 71.16-2.61 69.57-1.37 67.77-0.61 65.96 0.15 64.45 0.15L64.45 0.15Q61.86 0.15 59.83-1.15 57.8-2.44 56.44-4.44 55.07-6.45 54.36-8.86 53.65-11.28 53.65-13.57L53.65-13.57Q53.65-16.02 54.34-18.8 55.02-21.58 56.41-23.93 57.8-26.27 59.93-27.83 62.05-29.39 64.98-29.39L64.98-29.39Q66.64-29.39 68.16-28.83 69.67-28.27 70.79-27.25 71.92-26.22 72.6-24.8 73.28-23.39 73.28-21.63L73.28-21.63Q73.28-19.34 72.31-17.33 71.33-15.33 69.72-13.87 68.11-12.4 66.01-11.5 63.91-10.6 61.71-10.5L61.71-10.5Q61.91-9.08 62.86-8.45 63.81-7.81 65.13-7.81L65.13-7.81Q66.11-7.81 67.03-8.3 67.96-8.79 68.84-9.4 69.72-10.01 70.57-10.5 71.43-10.99 72.31-10.99L72.31-10.99Q73.28-10.99 74.06-10.35 74.85-9.72 74.85-8.69ZM66.94-20.65L66.94-20.65Q66.94-21.29 66.59-21.97 66.25-22.66 65.52-22.66L65.52-22.66Q64.45-22.66 63.71-22.09 62.98-21.53 62.49-20.68 62-19.82 61.74-18.85 61.47-17.87 61.42-17.04L61.42-17.04Q62.1-17.19 63.05-17.43 64.01-17.68 64.86-18.09 65.72-18.51 66.33-19.14 66.94-19.78 66.94-20.65ZM98.48-26.27L98.48-26.27Q98.48-24.9 97.77-23.49 97.06-22.07 96.06-20.68 95.06-19.29 93.96-18.04 92.86-16.8 92.03-15.77L92.03-15.77Q92.71-14.7 93.74-12.92 94.77-11.13 95.69-9.13 96.62-7.13 97.28-5.22 97.94-3.32 97.94-2.05L97.94-2.05Q97.94-1.03 97.3-0.17 96.67 0.68 95.55 0.68L95.55 0.68Q94.72 0.68 93.86-0.02 93.01-0.73 92.15-1.88 91.3-3.03 90.52-4.44 89.74-5.86 89.08-7.23 88.42-8.59 87.91-9.79 87.39-10.99 87.1-11.72L87.1-11.72Q86.46-11.08 85.76-10.67 85.05-10.25 84.37-9.72L84.37-9.72Q84.37-8.69 84.29-6.84 84.22-4.98 83.85-3.17 83.49-1.37 82.66-0.02 81.83 1.32 80.21 1.32L80.21 1.32Q78.95 1.32 78.26 0.17 77.58-0.98 77.26-2.51 76.94-4.05 76.89-5.64 76.85-7.23 76.85-8.06L76.85-8.06Q76.85-11.67 77.04-15.28 77.24-18.9 77.28-22.51L77.28-22.51Q77.28-23.34 77.31-24.68 77.33-26.03 77.48-27.59 77.63-29.15 77.92-30.76 78.21-32.37 78.75-33.67 79.29-34.96 80.14-35.77 81-36.57 82.22-36.57L82.22-36.57Q83.1-36.57 83.71-35.91 84.32-35.25 84.68-34.23 85.05-33.2 85.22-31.93 85.39-30.66 85.46-29.42 85.54-28.17 85.54-27.1 85.54-26.03 85.54-25.39L85.54-25.39Q85.54-24.95 85.51-24.1 85.49-23.24 85.46-22.31 85.44-21.39 85.44-20.61 85.44-19.82 85.54-19.48L85.54-19.48Q85.88-19.48 86.56-20.14 87.25-20.8 88.15-21.83 89.05-22.85 90.1-24 91.15-25.15 92.25-26.17 93.35-27.2 94.42-27.86 95.5-28.52 96.43-28.52L96.43-28.52Q97.4-28.52 97.94-27.83 98.48-27.15 98.48-26.27ZM120.64-8.69L120.64-8.69Q120.64-7.03 119.59-5.44 118.54-3.86 116.96-2.61 115.37-1.37 113.56-0.61 111.76 0.15 110.24 0.15L110.24 0.15Q107.65 0.15 105.63-1.15 103.6-2.44 102.23-4.44 100.87-6.45 100.16-8.86 99.45-11.28 99.45-13.57L99.45-13.57Q99.45-16.02 100.13-18.8 100.82-21.58 102.21-23.93 103.6-26.27 105.72-27.83 107.85-29.39 110.78-29.39L110.78-29.39Q112.44-29.39 113.95-28.83 115.47-28.27 116.59-27.25 117.71-26.22 118.4-24.8 119.08-23.39 119.08-21.63L119.08-21.63Q119.08-19.34 118.1-17.33 117.13-15.33 115.51-13.87 113.9-12.4 111.8-11.5 109.7-10.6 107.51-10.5L107.51-10.5Q107.7-9.08 108.65-8.45 109.61-7.81 110.93-7.81L110.93-7.81Q111.9-7.81 112.83-8.3 113.76-8.79 114.64-9.4 115.51-10.01 116.37-10.5 117.22-10.99 118.1-10.99L118.1-10.99Q119.08-10.99 119.86-10.35 120.64-9.72 120.64-8.69ZM112.73-20.65L112.73-20.65Q112.73-21.29 112.39-21.97 112.05-22.66 111.32-22.66L111.32-22.66Q110.24-22.66 109.51-22.09 108.78-21.53 108.29-20.68 107.8-19.82 107.53-18.85 107.26-17.87 107.21-17.04L107.21-17.04Q107.9-17.19 108.85-17.43 109.8-17.68 110.66-18.09 111.51-18.51 112.12-19.14 112.73-19.78 112.73-20.65ZM139.54-18.26L139.54-18.26Q138.85-18.21 138.36-18.38 137.88-18.55 137.39-18.75L137.39-18.75Q136.95-18.95 136.51-19.12 136.07-19.29 135.53-19.24L135.53-19.24Q134.56-19.19 133.8-18.7 133.04-18.21 132.43-17.48 131.82-16.75 131.38-15.84 130.94-14.94 130.7-14.06L130.7-14.06Q130.55-13.48 130.48-12.28 130.4-11.08 130.4-9.72L130.4-9.72Q130.36-8.3 130.36-7.03 130.36-5.76 130.26-5.03L130.26-5.03Q130.21-4.25 130.01-3.2 129.82-2.15 129.4-1.22 128.99-0.29 128.31 0.34 127.62 0.98 126.55 0.98L126.55 0.98Q125.72 0.98 125.11 0.49 124.5 0 124.08-0.81 123.67-1.61 123.4-2.69 123.13-3.76 122.98-4.88L122.98-4.88Q122.84-6.05 122.76-7.23 122.69-8.4 122.67-9.45 122.64-10.5 122.67-11.38 122.69-12.26 122.69-12.79L122.69-12.79Q122.64-14.5 122.52-16.24 122.4-17.97 122.4-19.68L122.4-19.68Q122.4-20.75 122.49-22.07 122.59-23.39 123.03-24.54 123.47-25.68 124.33-26.46 125.18-27.25 126.69-27.25L126.69-27.25Q127.52-27.25 128.11-26.71 128.7-26.17 129.06-25.39 129.43-24.61 129.62-23.73 129.82-22.85 129.87-22.12L129.87-22.12Q131.04-24.02 132.5-25.22 133.97-26.42 136.31-26.51L136.31-26.51Q137.49-26.56 138.63-26.29 139.78-26.03 140.73-25.42 141.68-24.8 142.29-23.83 142.9-22.85 142.95-21.53L142.95-21.53Q143.05-19.97 142.03-19.14 141-18.31 139.54-18.26Z" fill="#9823C2" data-fill-palette-color="primary"></path></g></svg></g></svg></g></svg></g></svg></g></svg></g><defs></defs></svg><rect width="395.5199999999999" height="111.00465210524746" fill="none" stroke="none" visibility="hidden"></rect></g></svg></g></svg>